<?xml version="1.0" encoding="UTF-8"?>
<svg width="24" height="24" viewBox="0 0 24 24" fill="none" xmlns="http://www.w3.org/2000/svg">
  <path d="M12 3C10.5 3 9 4 9 6C9 8 10.5 9 12 9C13.5 9 15 8 15 6C15 4 13.5 3 12 3Z" fill="#FFD700"/>
  <path d="M7 8C5.5 8 4 9 4 11C4 13 5.5 14 7 14C8.5 14 10 13 10 11C10 9 8.5 8 7 8Z" fill="#FFD700"/>
  <path d="M17 8C15.5 8 14 9 14 11C14 13 15.5 14 17 14C18.5 14 20 13 20 11C20 9 18.5 8 17 8Z" fill="#FFD700"/>
  <path d="M12 15L12 21" stroke="#8B4513" stroke-width="2" stroke-linecap="round"/>
</svg>