<?xml version="1.0" encoding="UTF-8"?>
<svg width="24" height="24" viewBox="0 0 24 24" fill="none" xmlns="http://www.w3.org/2000/svg">
  <path d="M12 4C10 4 8 5 8 8C8 11 10 12 12 12C14 12 16 11 16 8C16 5 14 4 12 4Z" fill="#90EE90"/>
  <path d="M8 10C6 10 5 11 5 14C5 17 6 18 8 18C10 18 11 17 11 14C11 11 10 10 8 10Z" fill="#90EE90"/>
  <path d="M16 10C14 10 13 11 13 14C13 17 14 18 16 18C18 18 19 17 19 14C19 11 18 10 16 10Z" fill="#90EE90"/>
  <path d="M12 14L12 20" stroke="#FF6B6B" stroke-width="2" stroke-linecap="round"/>
</svg>